{
    "asset" : {
        "generator" : "Khronos glTF Blender I/O v1.5.17",
        "version" : "2.0"
    },
    "scene" : 0,
    "scenes" : [
        {
            "name" : "Scene",
            "nodes" : [
                0,
                1,
                2,
                3,
                4,
                5,
                6,
                7
            ]
        }
    ],
    "nodes" : [
        {
            "mesh" : 0,
            "name" : "Cube",
            "translation" : [
                0.19682393968105316,
                -0.0030370312742888927,
                -0.00024241575738415122
            ]
        },
        {
            "mesh" : 1,
            "name" : "Sphere",
            "translation" : [
                1.2295745611190796,
                -0.003276228904724121,
                0.024375557899475098
            ]
        },
        {
            "mesh" : 2,
            "name" : "Icosphere.001",
            "translation" : [
                0.9654873609542847,
                -0.5580245852470398,
                0.555229127407074
            ]
        },
        {
            "mesh" : 3,
            "name" : "Cube.001",
            "translation" : [
                0.6190834045410156,
                0.7740383148193359,
                -0.5808134078979492
            ]
        },
        {
            "mesh" : 4,
            "name" : "Icosphere.002",
            "translation" : [
                1.0045512914657593,
                -0.8003551959991455,
                -0.6824851036071777
            ]
        },
        {
            "mesh" : 5,
            "name" : "Icosphere.003",
            "translation" : [
                -0.41003096103668213,
                -0.5509347915649414,
                0.4182853698730469
            ]
        },
        {
            "mesh" : 6,
            "name" : "Icosphere.009",
            "translation" : [
                -0.5963413715362549,
                -0.6690351963043213,
                -0.49630117416381836
            ]
        },
        {
            "mesh" : 7,
            "name" : "Cube.002",
            "translation" : [
                0.6206026077270508,
                0.7774266004562378,
                0.7137789726257324
            ]
        }
    ],
    "materials" : [
        {
            "doubleSided" : true,
            "name" : "Material.001",
            "pbrMetallicRoughness" : {
                "baseColorTexture" : {
                    "index" : 0
                },
                "metallicFactor" : 0
            }
        }
    ],
    "meshes" : [
        {
            "name" : "Cube.001",
            "primitives" : [
                {
                    "attributes" : {
                        "POSITION" : 0,
                        "NORMAL" : 1,
                        "TEXCOORD_0" : 2
                    },
                    "indices" : 3,
                    "material" : 0
                }
            ]
        },
        {
            "name" : "Sphere.001",
            "primitives" : [
                {
                    "attributes" : {
                        "POSITION" : 4,
                        "NORMAL" : 5,
                        "TEXCOORD_0" : 6
                    },
                    "indices" : 7,
                    "material" : 0
                }
            ]
        },
        {
            "name" : "Icosphere.001",
            "primitives" : [
                {
                    "attributes" : {
                        "POSITION" : 8,
                        "NORMAL" : 9,
                        "TEXCOORD_0" : 10
                    },
                    "indices" : 11,
                    "material" : 0
                }
            ]
        },
        {
            "name" : "Cube.002",
            "primitives" : [
                {
                    "attributes" : {
                        "POSITION" : 12,
                        "NORMAL" : 13,
                        "TEXCOORD_0" : 14
                    },
                    "indices" : 15,
                    "material" : 0
                }
            ]
        },
        {
            "name" : "Icosphere.009",
            "primitives" : [
                {
                    "attributes" : {
                        "POSITION" : 16,
                        "NORMAL" : 17,
                        "TEXCOORD_0" : 18
                    },
                    "indices" : 11,
                    "material" : 0
                }
            ]
        },
        {
            "name" : "Icosphere.010",
            "primitives" : [
                {
                    "attributes" : {
                        "POSITION" : 19,
                        "NORMAL" : 20,
                        "TEXCOORD_0" : 21
                    },
                    "indices" : 11,
                    "material" : 0
                }
            ]
        },
        {
            "name" : "Icosphere.011",
            "primitives" : [
                {
                    "attributes" : {
                        "POSITION" : 22,
                        "NORMAL" : 23,
                        "TEXCOORD_0" : 24
                    },
                    "indices" : 11,
                    "material" : 0
                }
            ]
        },
        {
            "name" : "Cube.005",
            "primitives" : [
                {
                    "attributes" : {
                        "POSITION" : 25,
                        "NORMAL" : 26,
                        "TEXCOORD_0" : 27
                    },
                    "indices" : 28,
                    "material" : 0
                }
            ]
        }
    ],
    "textures" : [
        {
            "sampler" : 0,
            "source" : 0
        }
    ],
    "images" : [
        {
            "bufferView" : 4,
            "mimeType" : "image/png",
            "name" : "baseTexturesTutBugCreature"
        }
    ],
    "accessors" : [
        {
            "bufferView" : 0,
            "componentType" : 5126,
            "count" : 152,
            "max" : [
                1.9288736581802368,
                1.2819769382476807,
                1.2791824340820312
            ],
            "min" : [
                -2.5631141662597656,
                -1.2759029865264893,
                -1.2786974906921387
            ],
            "type" : "VEC3"
        },
        {
            "bufferView" : 1,
            "componentType" : 5126,
            "count" : 152,
            "type" : "VEC3"
        },
        {
            "bufferView" : 2,
            "componentType" : 5126,
            "count" : 152,
            "type" : "VEC2"
        },
        {
            "bufferView" : 3,
            "componentType" : 5123,
            "count" : 234,
            "type" : "SCALAR"
        },
        {
            "bufferView" : 5,
            "componentType" : 5126,
            "count" : 78,
            "max" : [
                1.1552177667617798,
                0.6601032614707947,
                0.7183334827423096
            ],
            "min" : [
                -0.0017436742782592773,
                -0.6535508036613464,
                -0.7504193186759949
            ],
            "type" : "VEC3"
        },
        {
            "bufferView" : 6,
            "componentType" : 5126,
            "count" : 78,
            "type" : "VEC3"
        },
        {
            "bufferView" : 7,
            "componentType" : 5126,
            "count" : 78,
            "type" : "VEC2"
        },
        {
            "bufferView" : 8,
            "componentType" : 5123,
            "count" : 120,
            "type" : "SCALAR"
        },
        {
            "bufferView" : 9,
            "componentType" : 5126,
            "count" : 60,
            "max" : [
                0.4229658842086792,
                0.15213078260421753,
                0.9188893437385559
            ],
            "min" : [
                -0.3539406657218933,
                -0.9966714978218079,
                -0.21219515800476074
            ],
            "type" : "VEC3"
        },
        {
            "bufferView" : 10,
            "componentType" : 5126,
            "count" : 60,
            "type" : "VEC3"
        },
        {
            "bufferView" : 11,
            "componentType" : 5126,
            "count" : 60,
            "type" : "VEC2"
        },
        {
            "bufferView" : 12,
            "componentType" : 5123,
            "count" : 60,
            "type" : "SCALAR"
        },
        {
            "bufferView" : 13,
            "componentType" : 5126,
            "count" : 104,
            "max" : [
                0.5918560028076172,
                1.2654833793640137,
                0.0005922317504882812
            ],
            "min" : [
                -2.5180933475494385,
                -0.12833523750305176,
                -5.544566631317139
            ],
            "type" : "VEC3"
        },
        {
            "bufferView" : 14,
            "componentType" : 5126,
            "count" : 104,
            "type" : "VEC3"
        },
        {
            "bufferView" : 15,
            "componentType" : 5126,
            "count" : 104,
            "type" : "VEC2"
        },
        {
            "bufferView" : 16,
            "componentType" : 5123,
            "count" : 156,
            "type" : "SCALAR"
        },
        {
            "bufferView" : 17,
            "componentType" : 5126,
            "count" : 60,
            "max" : [
                0.3839019536972046,
                0.20401376485824585,
                0.26657748222351074
            ],
            "min" : [
                -0.3930045962333679,
                -0.9437072277069092,
                -0.8572726249694824
            ],
            "type" : "VEC3"
        },
        {
            "bufferView" : 18,
            "componentType" : 5126,
            "count" : 60,
            "type" : "VEC3"
        },
        {
            "bufferView" : 19,
            "componentType" : 5126,
            "count" : 60,
            "type" : "VEC2"
        },
        {
            "bufferView" : 20,
            "componentType" : 5126,
            "count" : 60,
            "max" : [
                0.4039284586906433,
                0.19246625900268555,
                0.8420867919921875
            ],
            "min" : [
                -0.372978150844574,
                -0.9563360214233398,
                -0.28899770975112915
            ],
            "type" : "VEC3"
        },
        {
            "bufferView" : 21,
            "componentType" : 5126,
            "count" : 60,
            "type" : "VEC3"
        },
        {
            "bufferView" : 22,
            "componentType" : 5126,
            "count" : 60,
            "type" : "VEC2"
        },
        {
            "bufferView" : 23,
            "componentType" : 5126,
            "count" : 60,
            "max" : [
                0.39889055490493774,
                0.23182076215744019,
                0.2370041012763977
            ],
            "min" : [
                -0.37801605463027954,
                -0.9159002304077148,
                -0.8868460655212402
            ],
            "type" : "VEC3"
        },
        {
            "bufferView" : 24,
            "componentType" : 5126,
            "count" : 60,
            "type" : "VEC3"
        },
        {
            "bufferView" : 25,
            "componentType" : 5126,
            "count" : 60,
            "type" : "VEC2"
        },
        {
            "bufferView" : 26,
            "componentType" : 5126,
            "count" : 104,
            "max" : [
                0.590336799621582,
                1.2620950937271118,
                5.544493675231934
            ],
            "min" : [
                -2.5196125507354736,
                -0.1317235231399536,
                -0.0006651878356933594
            ],
            "type" : "VEC3"
        },
        {
            "bufferView" : 27,
            "componentType" : 5126,
            "count" : 104,
            "type" : "VEC3"
        },
        {
            "bufferView" : 28,
            "componentType" : 5126,
            "count" : 104,
            "type" : "VEC2"
        },
        {
            "bufferView" : 29,
            "componentType" : 5123,
            "count" : 156,
            "type" : "SCALAR"
        }
    ],
    "bufferViews" : [
        {
            "buffer" : 0,
            "byteLength" : 1824,
            "byteOffset" : 0
        },
        {
            "buffer" : 0,
            "byteLength" : 1824,
            "byteOffset" : 1824
        },
        {
            "buffer" : 0,
            "byteLength" : 1216,
            "byteOffset" : 3648
        },
        {
            "buffer" : 0,
            "byteLength" : 468,
            "byteOffset" : 4864
        },
        {
            "buffer" : 0,
            "byteLength" : 163888,
            "byteOffset" : 5332
        },
        {
            "buffer" : 0,
            "byteLength" : 936,
            "byteOffset" : 169220
        },
        {
            "buffer" : 0,
            "byteLength" : 936,
            "byteOffset" : 170156
        },
        {
            "buffer" : 0,
            "byteLength" : 624,
            "byteOffset" : 171092
        },
        {
            "buffer" : 0,
            "byteLength" : 240,
            "byteOffset" : 171716
        },
        {
            "buffer" : 0,
            "byteLength" : 720,
            "byteOffset" : 171956
        },
        {
            "buffer" : 0,
            "byteLength" : 720,
            "byteOffset" : 172676
        },
        {
            "buffer" : 0,
            "byteLength" : 480,
            "byteOffset" : 173396
        },
        {
            "buffer" : 0,
            "byteLength" : 120,
            "byteOffset" : 173876
        },
        {
            "buffer" : 0,
            "byteLength" : 1248,
            "byteOffset" : 173996
        },
        {
            "buffer" : 0,
            "byteLength" : 1248,
            "byteOffset" : 175244
        },
        {
            "buffer" : 0,
            "byteLength" : 832,
            "byteOffset" : 176492
        },
        {
            "buffer" : 0,
            "byteLength" : 312,
            "byteOffset" : 177324
        },
        {
            "buffer" : 0,
            "byteLength" : 720,
            "byteOffset" : 177636
        },
        {
            "buffer" : 0,
            "byteLength" : 720,
            "byteOffset" : 178356
        },
        {
            "buffer" : 0,
            "byteLength" : 480,
            "byteOffset" : 179076
        },
        {
            "buffer" : 0,
            "byteLength" : 720,
            "byteOffset" : 179556
        },
        {
            "buffer" : 0,
            "byteLength" : 720,
            "byteOffset" : 180276
        },
        {
            "buffer" : 0,
            "byteLength" : 480,
            "byteOffset" : 180996
        },
        {
            "buffer" : 0,
            "byteLength" : 720,
            "byteOffset" : 181476
        },
        {
            "buffer" : 0,
            "byteLength" : 720,
            "byteOffset" : 182196
        },
        {
            "buffer" : 0,
            "byteLength" : 480,
            "byteOffset" : 182916
        },
        {
            "buffer" : 0,
            "byteLength" : 1248,
            "byteOffset" : 183396
        },
        {
            "buffer" : 0,
            "byteLength" : 1248,
            "byteOffset" : 184644
        },
        {
            "buffer" : 0,
            "byteLength" : 832,
            "byteOffset" : 185892
        },
        {
            "buffer" : 0,
            "byteLength" : 312,
            "byteOffset" : 186724
        }
    ],
    "samplers" : [
        {
            "magFilter" : 9728,
            "minFilter" : 9984
        }
    ],
    "buffers" : [
        {
            "byteLength" : 187036,
            "uri" : "data:application/octet-stream;base64,"
        }
    ]
}
